HIERARCHY
ROOT hip
{
	OFFSET 0.000000 0.000000 0.000000
	CHANNELS 6 Xposition Yposition Zposition Xrotation Zrotation Yrotation 
	JOINT abdomen
	{
		OFFSET 0.000000 3.422050 0.000000
		CHANNELS 3 Xrotation Zrotation Yrotation 
		JOINT chest
		{
			OFFSET 0.000000 8.486693 -0.684411
			CHANNELS 3 Xrotation Zrotation Yrotation 
			JOINT neck
			{
				OFFSET 0.000000 10.266162 -0.273764
				CHANNELS 3 Xrotation Zrotation Yrotation 
				JOINT head
				{
					OFFSET 0.000000 3.148285 0.000000
					CHANNELS 3 Xrotation Zrotation Yrotation 
					End Site
					{
						OFFSET 0.000000 3.148289 0.000000
					}
				}
			}
			JOINT lCollar
			{
				OFFSET 3.422053 6.707223 -0.821293
				CHANNELS 3 Yrotation Zrotation Xrotation 
				JOINT lShldr
				{
					OFFSET 3.285171 0.000000 0.000000
					CHANNELS 3 Zrotation Yrotation Xrotation 
					JOINT lForeArm
					{
						OFFSET 10.129278 0.000000 0.000000
						CHANNELS 3 Yrotation Zrotation Xrotation 
						JOINT lHand
						{
							OFFSET 8.486692 0.000000 0.000000
							CHANNELS 3 Zrotation Yrotation Xrotation 
							End Site
							{
								OFFSET 4.106464 0.000000 0.000000
							}
						}
					}
				}
			}
			JOINT rCollar
			{
				OFFSET -3.558935 6.707223 -0.821293
				CHANNELS 3 Yrotation Zrotation Xrotation 
				JOINT rShldr
				{
					OFFSET -3.148289 0.000000 0.000000
					CHANNELS 3 Zrotation Yrotation Xrotation 
					JOINT rForeArm
					{
						OFFSET -10.266159 0.000000 0.000000
						CHANNELS 3 Yrotation Zrotation Xrotation 
						JOINT rHand
						{
							OFFSET -8.349810 0.000000 0.000000
							CHANNELS 3 Zrotation Yrotation Xrotation 
							End Site
							{
								OFFSET -4.106464 0.000000 0.000000
							}
						}
					}
				}
			}
		}
	}
	JOINT lThigh
	{
		OFFSET 5.338403 -1.642589 1.368821
		CHANNELS 3 Xrotation Zrotation Yrotation 
		JOINT lShin
		{
			OFFSET -2.053232 -20.121670 0.000000
			CHANNELS 3 Xrotation Zrotation Yrotation 
			JOINT lFoot
			{
				OFFSET 0.000000 -19.300380 -1.231939
				CHANNELS 3 Xrotation Yrotation Zrotation 
				End Site
				{
					OFFSET 0.000000 -2.463878 4.653993
				}
			}
		}
	}
	JOINT rThigh
	{
		OFFSET -5.338403 -1.642589 1.368821
		CHANNELS 3 Xrotation Zrotation Yrotation 
		JOINT rShin
		{
			OFFSET 2.053232 -20.121670 0.000000
			CHANNELS 3 Xrotation Zrotation Yrotation 
			JOINT rFoot
			{
				OFFSET 0.000000 -19.300380 -1.231939
				CHANNELS 3 Xrotation Yrotation Zrotation 
				End Site
				{
					OFFSET 0.000000 -2.463878 4.653993
				}
			}
		}
	}
}
MOTION
Frames: 19
Frame Time: 0.066631
0.000000 43.528500 0.000000 0.000000 0.000000 0.000000 0.000000 0.000000 0.000000 0.000000 0.000000 0.000000 0.000000 0.000000 0.000000 0.000000 0.000000 0.000000 0.000000 0.000000 0.000000 0.000000 0.000000 0.000000 0.000000 0.000000 0.000000 0.000000 0.000000 0.000000 0.000000 0.000000 0.000000 0.000000 0.000000 0.000000 0.000000 0.000000 0.000000 0.000000 0.000000 0.000000 0.000000 0.000000 0.000000 0.000000 0.000000 0.000000 0.000000 0.000000 0.000000 0.000000 0.000000 0.000000 0.000000 0.000000 0.000000 0.000000 0.000000 0.000000 
0.000000 1.995800 0.000000 -63.002171 0.000000 0.000000 37.997963 0.000000 0.000000 19.998167 0.000000 0.000000 0.000000 0.000000 0.000000 0.274519 0.000415 -0.173104 0.000000 0.000000 0.000000 -75.004013 0.000000 0.000000 0.000000 0.000000 0.000000 79.999802 0.000000 0.000000 0.000000 0.000000 0.000000 74.999603 0.000000 0.000000 1.327185 -0.001258 0.344502 -80.018059 0.000000 0.000000 -57.000584 10.998217 0.000603 71.996742 0.000001 -0.000001 14.998732 -0.002847 -0.999614 -57.002922 -11.001460 1.999472 71.996742 0.000001 -0.000001 20.996786 0.000000 0.000000 
0.000000 1.995800 0.000000 -63.002171 0.000000 0.000000 37.997963 0.000000 0.000000 19.998167 0.000000 0.000000 0.000000 0.000000 0.000000 0.548594 -0.022748 -0.343794 0.000000 0.000000 0.000000 -74.984062 0.005250 0.305813 0.000000 0.000000 0.000000 79.999802 0.000000 0.000000 0.000000 0.000000 0.000000 74.239410 0.929555 0.737201 2.547421 -0.209654 0.618762 -79.013626 0.264852 0.449620 -57.000584 10.998217 0.000603 71.996742 0.000001 -0.000001 14.998732 -0.002847 -0.999614 -57.002930 -11.001461 1.999472 71.996742 0.000001 -0.000001 20.996786 0.000000 0.000000 
0.000000 1.995800 0.000000 -63.002171 0.000000 0.000000 37.997963 0.000000 0.000000 19.998167 0.000000 0.000000 0.000000 0.000000 0.000000 0.822858 -0.045103 -0.514669 0.000000 0.000000 0.000000 -74.964081 0.010398 0.611839 0.000000 0.000000 0.000000 79.999802 0.000000 0.000000 0.000000 0.000000 0.000000 73.483665 1.877973 1.469331 3.777945 -0.413675 0.899537 -78.001190 0.523261 0.906512 -57.000580 10.998216 0.000603 71.996735 0.000001 -0.000001 14.998732 -0.002847 -0.999614 -57.002922 -11.001459 1.999472 71.996735 0.000001 -0.000001 20.996786 0.000000 0.000000 
0.000000 1.995800 0.000000 -63.002171 0.000000 0.000000 37.997963 0.000000 0.000000 19.998169 0.000000 0.000000 0.000000 0.000000 0.000000 1.097305 -0.066649 -0.685722 0.000000 0.000000 0.000000 -74.944054 0.015442 0.918075 0.000000 0.000000 0.000000 79.999802 0.000000 0.000000 0.000000 0.000000 0.000000 72.732559 2.845055 2.196173 5.018577 -0.613054 1.186755 -76.980873 0.774950 1.370563 -57.000584 10.998217 0.000603 71.996742 0.000001 -0.000001 14.998732 -0.002847 -0.999614 -57.002926 -11.001462 1.999472 71.996742 0.000001 -0.000001 20.996786 0.000000 0.000000 
0.000000 1.995800 0.000000 -63.002171 0.000000 0.000000 37.997963 0.000000 0.000000 19.998163 0.000000 0.000000 0.000000 0.000000 0.000000 1.371927 -0.087383 -0.856947 0.000000 0.000000 0.000000 -74.923996 0.020382 1.224515 0.000000 0.000000 0.000000 79.999802 0.000000 0.000000 0.000000 0.000000 0.000000 71.986298 3.830572 2.917521 6.269120 -0.807523 1.480333 -75.952843 1.019646 1.841648 -57.000584 10.998217 0.000603 71.996735 0.000001 -0.000001 14.998732 -0.002847 -0.999614 -57.002922 -11.001459 1.999472 71.996735 0.000001 -0.000001 20.996786 0.000000 0.000000 
0.000000 1.995800 0.000000 -63.002171 0.000000 0.000000 37.997963 0.000000 0.000000 19.998167 0.000000 0.000000 0.000000 0.000000 0.000000 1.646719 -0.107304 -1.028336 0.000000 0.000000 0.000000 -74.903900 0.025218 1.531157 0.000000 0.000000 0.000000 79.999802 0.000000 0.000000 0.000000 0.000000 0.000000 71.245018 4.834272 3.633176 7.529366 -0.996812 1.780174 -74.917267 1.257079 2.319632 -57.000584 10.998217 0.000603 71.996742 0.000001 -0.000001 14.998732 -0.002847 -0.999614 -57.002922 -11.001460 1.999472 71.996742 0.000001 -0.000001 20.996786 0.000000 0.000000 
0.000000 1.995800 0.000000 -63.002178 0.000000 0.000000 37.997963 0.000000 0.000000 19.998167 0.000000 0.000000 0.000000 0.000000 0.000000 1.921673 -0.126410 -1.199885 0.000000 0.000000 0.000000 -74.883743 0.029949 1.837994 0.000000 0.000000 0.000000 79.999802 0.000000 0.000000 0.000000 0.000000 0.000000 70.508911 5.855873 4.342950 8.799087 -1.180656 2.086167 -73.874306 1.486978 2.804362 -57.000587 10.998218 0.000603 71.996750 0.000001 -0.000001 14.998732 -0.002847 -0.999614 -57.002926 -11.001460 1.999472 71.996750 0.000001 -0.000001 20.996788 0.000000 0.000000 
0.000000 1.995800 0.000000 -63.002171 0.000000 0.000000 37.997963 0.000000 0.000000 19.998167 0.000000 0.000000 0.000000 0.000000 0.000000 2.196783 -0.144699 -1.371585 0.000000 0.000000 0.000000 -74.863571 0.034575 2.145024 0.000000 0.000000 0.000000 79.999802 0.000000 0.000000 0.000000 0.000000 0.000000 69.778107 6.895064 5.046662 10.078035 -1.358789 2.398189 -72.824150 1.709079 3.295676 -57.000584 10.998217 0.000603 71.996742 0.000001 -0.000001 14.998732 -0.002847 -0.999614 -57.002922 -11.001459 1.999472 71.996742 0.000001 -0.000001 20.996786 0.000000 0.000000 
0.000000 1.995800 0.000000 -63.002178 0.000000 0.000000 37.997963 0.000000 0.000000 19.998167 0.000000 0.000000 0.000000 0.000000 0.000000 2.472042 -0.162169 -1.543430 0.000000 0.000000 0.000000 -74.843353 0.039096 2.452242 0.000000 0.000000 0.000000 79.999802 0.000000 0.000000 0.000000 0.000000 0.000000 69.052742 7.951512 5.744140 11.365953 -1.530949 2.716099 -71.767029 1.923123 3.793398 -57.000584 10.998217 0.000603 71.996742 0.000001 -0.000001 14.998732 -0.002847 -0.999614 -57.002926 -11.001462 1.999472 71.996742 0.000001 -0.000001 20.996786 0.000000 0.000000 
0.000000 1.995800 0.000000 -63.002171 0.000000 0.000000 37.997963 0.000000 0.000000 19.998165 0.000000 0.000000 0.000000 0.000000 0.000000 2.747443 -0.178819 -1.715415 0.000000 0.000000 0.000000 -74.823105 0.043510 2.759643 0.000000 0.000000 0.000000 79.999802 0.000000 0.000000 0.000000 0.000000 0.000000 68.332962 9.024850 6.435219 12.662563 -1.696875 3.039746 -70.703125 2.128852 4.297339 -57.000576 10.998217 0.000604 71.996742 0.000001 -0.000001 14.998732 -0.002847 -0.999614 -57.002922 -11.001460 1.999472 71.996742 0.000001 -0.000001 20.996786 0.000000 0.000000 
0.000000 1.995800 0.000000 -63.002171 0.000000 0.000000 37.997963 0.000000 0.000000 19.998167 0.000000 0.000000 0.000000 0.000000 0.000000 3.022980 -0.194646 -1.887532 0.000000 0.000000 0.000000 -74.802795 0.047818 3.067223 0.000000 0.000000 0.000000 79.999802 0.000000 0.000000 0.000000 0.000000 0.000000 67.618851 10.114694 7.119747 13.967565 -1.856314 3.368962 -69.632668 2.326018 4.807296 -57.000584 10.998217 0.000603 71.996742 0.000001 -0.000001 14.998732 -0.002847 -0.999614 -57.002926 -11.001460 1.999473 71.996742 0.000001 -0.000001 20.996786 0.000000 0.000000 
0.000000 1.995800 0.000000 -63.002171 0.000000 0.000000 37.997963 0.000000 0.000000 19.998167 0.000000 0.000000 0.000000 0.000000 0.000000 3.298645 -0.209650 -2.059773 0.000000 0.000000 0.000000 -74.782486 0.052020 3.374979 0.000000 0.000000 0.000000 79.999786 0.000000 0.000000 0.000000 0.000000 0.000000 66.910561 11.220624 7.797579 15.280658 -2.009016 3.703568 -68.555908 2.514375 5.323053 -57.000584 10.998217 0.000603 71.996742 0.000001 -0.000001 14.998732 -0.002847 -0.999614 -57.002914 -11.001458 1.999472 71.996742 0.000001 -0.000001 20.996784 0.000000 0.000000 
0.000000 1.995800 0.000000 -63.002171 0.000000 0.000000 37.997963 0.000000 0.000000 19.998167 0.000000 0.000000 0.000000 0.000000 0.000000 3.574433 -0.223829 -2.232135 0.000000 0.000000 0.000000 -74.762131 0.056115 3.682904 0.000000 0.000000 0.000000 79.999802 0.000000 0.000000 0.000000 0.000000 0.000000 66.208168 12.342198 8.468575 16.601509 -2.154737 4.043368 -67.473114 2.693691 5.844384 -57.000584 10.998217 0.000603 71.996742 0.000001 -0.000001 14.998732 -0.002847 -0.999614 -57.002922 -11.001460 1.999472 71.996742 0.000001 -0.000001 20.996786 0.000000 0.000000 
0.000000 1.995800 0.000000 -63.002171 0.000000 0.000000 37.997963 0.000000 0.000000 19.998167 0.000000 0.000000 0.000000 0.000000 0.000000 3.850335 -0.237182 -2.404608 0.000000 0.000000 0.000000 -74.741745 0.060103 3.990997 0.000000 0.000000 0.000000 79.999802 0.000000 0.000000 0.000000 0.000000 0.000000 65.511742 13.478946 9.132606 17.929773 -2.293242 4.388151 -66.384544 2.863737 6.371047 -57.000584 10.998218 0.000603 71.996742 0.000001 -0.000001 14.998732 -0.002847 -0.999614 -57.002922 -11.001461 1.999473 71.996742 0.000001 -0.000001 20.996788 0.000000 0.000000 
0.000000 1.995800 0.000000 -63.002171 0.000000 0.000000 37.997963 0.000000 0.000000 19.998167 0.000000 0.000000 0.000000 0.000000 0.000000 4.126346 -0.249706 -2.577188 0.000000 0.000000 0.000000 -74.721321 0.063982 4.299251 0.000000 0.000000 0.000000 79.999802 0.000000 0.000000 0.000000 0.000000 0.000000 64.821365 14.630383 9.789551 19.265095 -2.424303 4.737698 -65.290443 3.024291 6.902788 -57.000580 10.998216 0.000603 71.996735 0.000001 -0.000001 14.998732 -0.002847 -0.999614 -57.002922 -11.001460 1.999472 71.996735 0.000001 -0.000001 20.996786 0.000000 0.000000 
0.000000 1.995800 0.000000 -63.002171 0.000000 0.000000 37.997963 0.000000 0.000000 19.998167 0.000000 0.000000 0.000000 0.000000 0.000000 4.402459 -0.261402 -2.749866 0.000000 0.000000 0.000000 -74.700874 0.067754 4.607663 0.000000 0.000000 0.000000 79.999802 0.000000 0.000000 0.000000 0.000000 0.000000 64.137123 15.795991 10.439299 20.607101 -2.547699 5.091770 -64.191154 3.175148 7.439344 -57.000584 10.998218 0.000604 71.996750 0.000001 -0.000001 14.998732 -0.002847 -0.999614 -57.002926 -11.001461 1.999472 71.996750 0.000001 -0.000001 20.996788 0.000000 0.000000 
0.000000 1.995800 0.000000 -63.002163 0.000000 0.000000 37.997955 0.000000 0.000000 19.998167 0.000000 0.000000 0.000000 0.000000 0.000000 4.678665 -0.272268 -2.922637 0.000000 0.000000 0.000000 -74.680389 0.071417 4.916228 0.000000 0.000000 0.000000 79.999802 0.000000 0.000000 0.000000 0.000000 0.000000 63.459042 16.975227 11.081738 21.955397 -2.663223 5.450119 -63.086967 3.316106 7.980436 -57.000584 10.998217 0.000603 71.996742 0.000001 -0.000001 14.998732 -0.002847 -0.999614 -57.002918 -11.001459 1.999472 71.996742 0.000001 -0.000001 20.996784 0.000000 0.000000 
0.000000 1.995800 0.000000 -63.002171 0.000000 0.000000 37.997963 0.000000 0.000000 19.998167 0.000000 0.000000 0.000000 0.000000 0.000000 4.954959 -0.282302 -3.095492 0.000000 0.000000 0.000000 -74.659882 0.074972 5.224941 0.000000 0.000000 0.000000 79.999802 0.000000 0.000000 0.000000 0.000000 0.000000 62.787178 18.167532 11.716771 23.309586 -2.770674 5.812485 -61.978176 3.446976 8.525780 -57.000584 10.998217 0.000603 71.996742 0.000001 -0.000001 14.998732 -0.002847 -0.999614 -57.002922 -11.001460 1.999472 71.996742 0.000001 -0.000001 20.996786 0.000000 0.000000 
